<?xml version="1.0" encoding="UTF-8" standalone="no"?>
<!DOCTYPE svg PUBLIC "-//W3C//DTD SVG 1.1//EN"
 "http://www.w3.org/Graphics/SVG/1.1/DTD/svg11.dtd">
<!-- Generated by graphviz version 2.43.0 (0)
 -->
<!-- Title: G Pages: 1 -->
<svg width="224pt" height="404pt"
 viewBox="0.00 0.00 224.00 404.00" xmlns="http://www.w3.org/2000/svg" xmlns:xlink="http://www.w3.org/1999/xlink">
<g id="graph0" class="graph" transform="scale(1 1) rotate(0) translate(4 400)">
<title>G</title>
<polygon fill="white" stroke="transparent" points="-4,4 -4,-400 220,-400 220,4 -4,4"/>
<!-- t -->
<g id="node1" class="node">
<title>t</title>
<ellipse fill="none" stroke="black" cx="108" cy="-18" rx="27" ry="18"/>
<text text-anchor="middle" x="108" y="-14.3" font-family="Times,serif" font-size="14.00">t</text>
</g>
<!-- s -->
<g id="node2" class="node">
<title>s</title>
<ellipse fill="none" stroke="black" cx="108" cy="-378" rx="27" ry="18"/>
<text text-anchor="middle" x="108" y="-374.3" font-family="Times,serif" font-size="14.00">s</text>
</g>
<!-- b -->
<g id="node3" class="node">
<title>b</title>
<ellipse fill="none" stroke="black" cx="27" cy="-198" rx="27" ry="18"/>
<text text-anchor="middle" x="27" y="-194.3" font-family="Times,serif" font-size="14.00">b</text>
</g>
<!-- s&#45;&gt;b -->
<g id="edge1" class="edge">
<title>s:sw&#45;&gt;b</title>
<path fill="none" stroke="black" d="M88.2,-352.8C78.26,-328.26 51.62,-262.47 36.65,-225.5"/>
<path fill="none" stroke="orange" d="M90.05,-352.05C80.11,-327.51 53.47,-261.72 38.51,-224.75"/>
<polygon fill="orange" stroke="orange" points="86,-354.04 93,-362 92.49,-351.42 86,-354.04"/>
<polygon fill="black" stroke="black" points="40.69,-223.48 33.69,-215.53 34.2,-226.11 40.69,-223.48"/>
<text text-anchor="middle" x="55.65" y="-232.27" font-family="Times,serif" font-size="14.00">0/1</text>
<text text-anchor="middle" x="71.04" y="-337.86" font-family="Times,serif" font-size="14.00">1/1</text>
</g>
<!-- c -->
<g id="node4" class="node">
<title>c</title>
<ellipse fill="none" stroke="black" cx="189" cy="-198" rx="27" ry="18"/>
<text text-anchor="middle" x="189" y="-194.3" font-family="Times,serif" font-size="14.00">c</text>
</g>
<!-- s&#45;&gt;c -->
<g id="edge2" class="edge">
<title>s:se&#45;&gt;c</title>
<path fill="none" stroke="black" d="M125.95,-352.05C135.89,-327.51 162.53,-261.72 177.49,-224.75"/>
<path fill="none" stroke="orange" d="M127.8,-352.8C137.74,-328.26 164.38,-262.47 179.35,-225.5"/>
<polygon fill="orange" stroke="orange" points="123.51,-351.42 123,-362 130,-354.04 123.51,-351.42"/>
<polygon fill="black" stroke="black" points="181.8,-226.11 182.31,-215.53 175.31,-223.48 181.8,-226.11"/>
<text text-anchor="middle" x="183.86" y="-241.79" font-family="Times,serif" font-size="14.00">0/1</text>
<text text-anchor="middle" x="121.45" y="-328.34" font-family="Times,serif" font-size="14.00">1/1</text>
</g>
<!-- b&#45;&gt;t -->
<g id="edge5" class="edge">
<title>b&#45;&gt;t:nw</title>
<path fill="none" stroke="black" d="M36.54,-170.76C51.52,-133.77 78.35,-67.51 88.26,-43.04"/>
<path fill="none" stroke="orange" d="M38.4,-171.51C53.38,-134.52 80.21,-68.26 90.11,-43.79"/>
<polygon fill="orange" stroke="orange" points="34.2,-169.89 33.69,-180.47 40.69,-172.52 34.2,-169.89"/>
<polygon fill="black" stroke="black" points="92.49,-44.58 93,-34 86,-41.96 92.49,-44.58"/>
<text text-anchor="middle" x="94.55" y="-60.26" font-family="Times,serif" font-size="14.00">0/1</text>
<text text-anchor="middle" x="32.14" y="-146.81" font-family="Times,serif" font-size="14.00">1/1</text>
</g>
<!-- b&#45;&gt;c -->
<g id="edge3" class="edge">
<title>b&#45;&gt;c</title>
<path fill="none" stroke="black" d="M64.31,-197C93.4,-197 122.5,-197 151.59,-197"/>
<path fill="none" stroke="orange" d="M64.31,-199C93.4,-199 122.5,-199 151.59,-199"/>
<polygon fill="orange" stroke="orange" points="64.21,-194.5 54.21,-198 64.21,-201.5 64.21,-194.5"/>
<polygon fill="black" stroke="black" points="151.88,-201.5 161.88,-198 151.88,-194.5 151.88,-201.5"/>
<text text-anchor="middle" x="134.69" y="-206.98" font-family="Times,serif" font-size="14.00">0/1</text>
<text text-anchor="middle" x="81.4" y="-181.62" font-family="Times,serif" font-size="14.00">1/1</text>
</g>
<!-- c&#45;&gt;t -->
<g id="edge4" class="edge">
<title>c&#45;&gt;t:ne</title>
<path fill="none" stroke="black" d="M177.6,-171.51C162.62,-134.52 135.79,-68.26 125.89,-43.79"/>
<path fill="none" stroke="orange" d="M179.46,-170.76C164.48,-133.77 137.65,-67.51 127.74,-43.04"/>
<polygon fill="orange" stroke="orange" points="175.31,-172.52 182.31,-180.47 181.8,-169.89 175.31,-172.52"/>
<polygon fill="black" stroke="black" points="130,-41.96 123,-34 123.51,-44.58 130,-41.96"/>
<text text-anchor="middle" x="144.96" y="-50.74" font-family="Times,serif" font-size="14.00">0/1</text>
<text text-anchor="middle" x="160.35" y="-156.33" font-family="Times,serif" font-size="14.00">1/1</text>
</g>
</g>
</svg>
