<?xml version="1.0" encoding="UTF-8" standalone="no"?>
<!DOCTYPE svg PUBLIC "-//W3C//DTD SVG 1.1//EN"
 "http://www.w3.org/Graphics/SVG/1.1/DTD/svg11.dtd">
<!-- Generated by graphviz version 2.43.0 (0)
 -->
<!-- Title: D Pages: 1 -->
<svg width="548pt" height="404pt"
 viewBox="0.00 0.00 548.00 404.00" xmlns="http://www.w3.org/2000/svg" xmlns:xlink="http://www.w3.org/1999/xlink">
<g id="graph0" class="graph" transform="scale(1 1) rotate(0) translate(4 400)">
<title>D</title>
<polygon fill="white" stroke="transparent" points="-4,4 -4,-400 544,-400 544,4 -4,4"/>
<!-- t -->
<g id="node1" class="node">
<title>t</title>
<ellipse fill="none" stroke="black" cx="108" cy="-18" rx="27" ry="18"/>
<text text-anchor="middle" x="108" y="-14.3" font-family="Times,serif" font-size="14.00">t</text>
</g>
<!-- t1 -->
<g id="node2" class="node">
<title>t1</title>
<ellipse fill="none" stroke="black" cx="432" cy="-18" rx="27" ry="18"/>
<text text-anchor="middle" x="432" y="-14.3" font-family="Times,serif" font-size="14.00">t</text>
</g>
<!-- s -->
<g id="node3" class="node">
<title>s</title>
<ellipse fill="none" stroke="black" cx="108" cy="-378" rx="27" ry="18"/>
<text text-anchor="middle" x="108" y="-374.3" font-family="Times,serif" font-size="14.00">s</text>
</g>
<!-- b -->
<g id="node5" class="node">
<title>b</title>
<ellipse fill="none" stroke="black" cx="27" cy="-198" rx="27" ry="18"/>
<text text-anchor="middle" x="27" y="-194.3" font-family="Times,serif" font-size="14.00">b</text>
</g>
<!-- s&#45;&gt;b -->
<g id="edge1" class="edge">
<title>s:sw&#45;&gt;b</title>
<path fill="none" stroke="blue" d="M93,-362C93,-362 56.09,-270.83 37.47,-224.86"/>
<polygon fill="blue" stroke="blue" points="40.69,-223.48 33.69,-215.53 34.2,-226.11 40.69,-223.48"/>
<text text-anchor="middle" x="55.65" y="-232.27" font-family="Times,serif" font-size="14.00">1</text>
</g>
<!-- c -->
<g id="node6" class="node">
<title>c</title>
<ellipse fill="none" stroke="black" cx="189" cy="-198" rx="27" ry="18"/>
<text text-anchor="middle" x="189" y="-194.3" font-family="Times,serif" font-size="14.00">c</text>
</g>
<!-- s&#45;&gt;c -->
<g id="edge2" class="edge">
<title>s:se&#45;&gt;c</title>
<path fill="none" stroke="red" d="M123,-362C123,-362 159.91,-270.83 178.53,-224.86"/>
<polygon fill="red" stroke="red" points="181.8,-226.11 182.31,-215.53 175.31,-223.48 181.8,-226.11"/>
<text text-anchor="middle" x="183.86" y="-241.79" font-family="Times,serif" font-size="14.00">1</text>
</g>
<!-- s1 -->
<g id="node4" class="node">
<title>s1</title>
<ellipse fill="none" stroke="black" cx="432" cy="-378" rx="27" ry="18"/>
<text text-anchor="middle" x="432" y="-374.3" font-family="Times,serif" font-size="14.00">s</text>
</g>
<!-- c1 -->
<g id="node7" class="node">
<title>c1</title>
<ellipse fill="none" stroke="black" cx="513" cy="-198" rx="27" ry="18"/>
<text text-anchor="middle" x="513" y="-194.3" font-family="Times,serif" font-size="14.00">c</text>
</g>
<!-- s1&#45;&gt;c1 -->
<g id="edge7" class="edge">
<title>s1:se&#45;&gt;c1</title>
<path fill="none" stroke="red" d="M447,-362C447,-362 483.91,-270.83 502.53,-224.86"/>
<polygon fill="red" stroke="red" points="505.8,-226.11 506.31,-215.53 499.31,-223.48 505.8,-226.11"/>
<text text-anchor="middle" x="507.86" y="-241.79" font-family="Times,serif" font-size="14.00">1</text>
</g>
<!-- b1 -->
<g id="node8" class="node">
<title>b1</title>
<ellipse fill="none" stroke="black" cx="351" cy="-198" rx="27" ry="18"/>
<text text-anchor="middle" x="351" y="-194.3" font-family="Times,serif" font-size="14.00">b</text>
</g>
<!-- s1&#45;&gt;b1 -->
<g id="edge6" class="edge">
<title>s1:sw&#45;&gt;b1</title>
<path fill="none" stroke="blue" d="M417,-362C417,-362 380.09,-270.83 361.47,-224.86"/>
<polygon fill="blue" stroke="blue" points="364.69,-223.48 357.69,-215.53 358.2,-226.11 364.69,-223.48"/>
<text text-anchor="middle" x="379.65" y="-232.27" font-family="Times,serif" font-size="14.00">1</text>
</g>
<!-- b&#45;&gt;t -->
<g id="edge5" class="edge">
<title>b&#45;&gt;t:nw</title>
<path fill="none" stroke="red" d="M33.69,-180.47C47.39,-146.64 78.25,-70.42 89.12,-43.58"/>
<polygon fill="red" stroke="red" points="92.49,-44.58 93,-34 86,-41.96 92.49,-44.58"/>
<text text-anchor="middle" x="94.55" y="-60.26" font-family="Times,serif" font-size="14.00">1</text>
</g>
<!-- b&#45;&gt;c -->
<g id="edge3" class="edge">
<title>b&#45;&gt;c</title>
<path fill="none" stroke="blue" d="M64.31,-197C93.4,-197 122.5,-197 151.59,-197"/>
<path fill="none" stroke="red" d="M64.31,-199C93.4,-199 122.5,-199 151.59,-199"/>
<polygon fill="red" stroke="red" points="64.21,-194.5 54.21,-198 64.21,-201.5 64.21,-194.5"/>
<polygon fill="blue" stroke="blue" points="151.88,-201.5 161.88,-198 151.88,-194.5 151.88,-201.5"/>
<text text-anchor="middle" x="134.69" y="-206.98" font-family="Times,serif" font-size="14.00">1</text>
<text text-anchor="middle" x="81.4" y="-181.62" font-family="Times,serif" font-size="14.00">1</text>
</g>
<!-- c&#45;&gt;t -->
<g id="edge4" class="edge">
<title>c&#45;&gt;t:ne</title>
<path fill="none" stroke="blue" d="M182.31,-180.47C168.61,-146.64 137.75,-70.42 126.88,-43.58"/>
<polygon fill="blue" stroke="blue" points="130,-41.96 123,-34 123.51,-44.58 130,-41.96"/>
<text text-anchor="middle" x="144.96" y="-50.74" font-family="Times,serif" font-size="14.00">1</text>
</g>
<!-- c1&#45;&gt;t1 -->
<g id="edge8" class="edge">
<title>c1&#45;&gt;t1:ne</title>
<path fill="none" stroke="red" d="M506.31,-180.47C492.61,-146.64 461.75,-70.42 450.88,-43.58"/>
<polygon fill="red" stroke="red" points="454,-41.96 447,-34 447.51,-44.58 454,-41.96"/>
<text text-anchor="middle" x="468.96" y="-50.74" font-family="Times,serif" font-size="14.00">1</text>
</g>
<!-- b1&#45;&gt;t1 -->
<g id="edge9" class="edge">
<title>b1&#45;&gt;t1:nw</title>
<path fill="none" stroke="blue" d="M357.69,-180.47C371.39,-146.64 402.25,-70.42 413.12,-43.58"/>
<polygon fill="blue" stroke="blue" points="416.49,-44.58 417,-34 410,-41.96 416.49,-44.58"/>
<text text-anchor="middle" x="418.55" y="-60.26" font-family="Times,serif" font-size="14.00">1</text>
</g>
</g>
</svg>
