<?xml version="1.0" encoding="UTF-8" standalone="no"?>
<!DOCTYPE svg PUBLIC "-//W3C//DTD SVG 1.1//EN"
 "http://www.w3.org/Graphics/SVG/1.1/DTD/svg11.dtd">
<!-- Generated by graphviz version 2.43.0 (0)
 -->
<!-- Title: G Pages: 1 -->
<svg width="152pt" height="218pt"
 viewBox="0.00 0.00 152.00 218.00" xmlns="http://www.w3.org/2000/svg" xmlns:xlink="http://www.w3.org/1999/xlink">
<g id="graph0" class="graph" transform="scale(1 1) rotate(0) translate(4 214)">
<title>G</title>
<polygon fill="white" stroke="transparent" points="-4,4 -4,-214 148,-214 148,4 -4,4"/>
<!-- b -->
<g id="node1" class="node">
<title>b</title>
<ellipse fill="none" stroke="black" cx="27" cy="-105" rx="27" ry="18"/>
<text text-anchor="middle" x="27" y="-101.3" font-family="Times,serif" font-size="14.00">b</text>
</g>
<!-- c -->
<g id="node2" class="node">
<title>c</title>
<ellipse fill="none" stroke="black" cx="117" cy="-105" rx="27" ry="18"/>
<text text-anchor="middle" x="117" y="-101.3" font-family="Times,serif" font-size="14.00">c</text>
</g>
<!-- b&#45;&gt;c -->
<!-- t -->
<g id="node4" class="node">
<title>t</title>
<ellipse fill="none" stroke="black" cx="71" cy="-18" rx="27" ry="18"/>
<text text-anchor="middle" x="71" y="-14.3" font-family="Times,serif" font-size="14.00">t</text>
</g>
<!-- b&#45;&gt;t -->
<g id="edge5" class="edge">
<title>b&#45;&gt;t</title>
<path fill="none" stroke="black" d="M35.48,-87.61C41.81,-75.38 50.58,-58.44 57.82,-44.46"/>
<polygon fill="black" stroke="black" points="61.05,-45.83 62.54,-35.34 54.84,-42.61 61.05,-45.83"/>
<text text-anchor="middle" x="57" y="-57.8" font-family="Times,serif" font-size="14.00">1</text>
</g>
<!-- c&#45;&gt;t -->
<!-- s -->
<g id="node3" class="node">
<title>s</title>
<ellipse fill="none" stroke="black" cx="71" cy="-192" rx="27" ry="18"/>
<text text-anchor="middle" x="71" y="-188.3" font-family="Times,serif" font-size="14.00">s</text>
</g>
<!-- s&#45;&gt;b -->
<!-- s&#45;&gt;c -->
<g id="edge2" class="edge">
<title>s&#45;&gt;c</title>
<path fill="none" stroke="black" d="M79.87,-174.61C86.53,-162.3 95.77,-145.23 103.37,-131.19"/>
<polygon fill="black" stroke="black" points="106.63,-132.51 108.31,-122.05 100.48,-129.18 106.63,-132.51"/>
<text text-anchor="middle" x="101" y="-144.8" font-family="Times,serif" font-size="14.00">1</text>
</g>
</g>
</svg>
