<?xml version="1.0" encoding="UTF-8" standalone="no"?>
<!DOCTYPE svg PUBLIC "-//W3C//DTD SVG 1.1//EN"
 "http://www.w3.org/Graphics/SVG/1.1/DTD/svg11.dtd">
<!-- Generated by graphviz version 2.43.0 (0)
 -->
<!-- Title: G Pages: 1 -->
<svg width="152pt" height="218pt"
 viewBox="0.00 0.00 152.00 218.00" xmlns="http://www.w3.org/2000/svg" xmlns:xlink="http://www.w3.org/1999/xlink">
<g id="graph0" class="graph" transform="scale(1 1) rotate(0) translate(4 214)">
<title>G</title>
<polygon fill="white" stroke="transparent" points="-4,4 -4,-214 148,-214 148,4 -4,4"/>
<!-- b -->
<g id="node1" class="node">
<title>b</title>
<ellipse fill="none" stroke="black" cx="27" cy="-105" rx="27" ry="18"/>
<text text-anchor="middle" x="27" y="-101.3" font-family="Times,serif" font-size="14.00">b</text>
</g>
<!-- c -->
<g id="node2" class="node">
<title>c</title>
<ellipse fill="none" stroke="black" cx="117" cy="-105" rx="27" ry="18"/>
<text text-anchor="middle" x="117" y="-101.3" font-family="Times,serif" font-size="14.00">c</text>
</g>
<!-- b&#45;&gt;c -->
<g id="edge3" class="edge">
<title>b&#45;&gt;c</title>
<path fill="none" stroke="black" d="M54,-105C62.03,-105 70.97,-105 79.53,-105"/>
<polygon fill="black" stroke="black" points="79.71,-108.5 89.71,-105 79.7,-101.5 79.71,-108.5"/>
<text text-anchor="middle" x="72" y="-111.8" font-family="Times,serif" font-size="14.00">1</text>
</g>
<!-- t -->
<g id="node4" class="node">
<title>t</title>
<ellipse fill="none" stroke="black" cx="72" cy="-18" rx="27" ry="18"/>
<text text-anchor="middle" x="72" y="-14.3" font-family="Times,serif" font-size="14.00">t</text>
</g>
<!-- b&#45;&gt;t -->
<g id="edge5" class="edge">
<title>b&#45;&gt;t</title>
<path fill="none" stroke="black" d="M33.93,-87.52C38.25,-77.65 44.09,-64.92 50,-54 51.91,-50.48 54.03,-46.83 56.18,-43.28"/>
<polygon fill="black" stroke="black" points="59.16,-45.11 61.48,-34.77 53.22,-41.41 59.16,-45.11"/>
<text text-anchor="middle" x="68.5" y="-57.8" font-family="Times,serif" font-size="14.00">1000</text>
</g>
<!-- c&#45;&gt;t -->
<g id="edge4" class="edge">
<title>c&#45;&gt;t</title>
<path fill="none" stroke="black" d="M108.32,-87.61C101.85,-75.38 92.88,-58.44 85.48,-44.46"/>
<polygon fill="black" stroke="black" points="88.42,-42.54 80.65,-35.34 82.24,-45.81 88.42,-42.54"/>
<text text-anchor="middle" x="102" y="-57.8" font-family="Times,serif" font-size="14.00">1</text>
</g>
<!-- s -->
<g id="node3" class="node">
<title>s</title>
<ellipse fill="none" stroke="black" cx="71" cy="-192" rx="27" ry="18"/>
<text text-anchor="middle" x="71" y="-188.3" font-family="Times,serif" font-size="14.00">s</text>
</g>
<!-- s&#45;&gt;b -->
<g id="edge1" class="edge">
<title>s&#45;&gt;b</title>
<path fill="none" stroke="black" d="M62.52,-174.61C56.19,-162.38 47.42,-145.44 40.18,-131.46"/>
<polygon fill="black" stroke="black" points="43.16,-129.61 35.46,-122.34 36.95,-132.83 43.16,-129.61"/>
<text text-anchor="middle" x="66" y="-144.8" font-family="Times,serif" font-size="14.00">100</text>
</g>
<!-- s&#45;&gt;c -->
<g id="edge2" class="edge">
<title>s&#45;&gt;c</title>
<path fill="none" stroke="black" d="M79.87,-174.61C86.53,-162.3 95.77,-145.23 103.37,-131.19"/>
<polygon fill="black" stroke="black" points="106.63,-132.51 108.31,-122.05 100.48,-129.18 106.63,-132.51"/>
<text text-anchor="middle" x="110" y="-144.8" font-family="Times,serif" font-size="14.00">100</text>
</g>
</g>
</svg>
