<?xml version="1.0" encoding="UTF-8" standalone="no"?>
<!DOCTYPE svg PUBLIC "-//W3C//DTD SVG 1.1//EN"
 "http://www.w3.org/Graphics/SVG/1.1/DTD/svg11.dtd">
<!-- Generated by graphviz version 2.43.0 (0)
 -->
<!-- Title: G Pages: 1 -->
<svg width="353pt" height="332pt"
 viewBox="0.00 0.00 352.90 332.00" xmlns="http://www.w3.org/2000/svg" xmlns:xlink="http://www.w3.org/1999/xlink">
<g id="graph0" class="graph" transform="scale(1 1) rotate(0) translate(4 328)">
<title>G</title>
<polygon fill="white" stroke="transparent" points="-4,4 -4,-328 348.9,-328 348.9,4 -4,4"/>
<!-- a -->
<!-- b -->
<!-- a&#45;&gt;b -->
<!-- 0 -->
<g id="node2" class="node">
<title>0</title>
<ellipse fill="none" stroke="black" cx="109.9" cy="-306" rx="27" ry="18"/>
<text text-anchor="middle" x="109.9" y="-302.3" font-family="Times,serif" font-size="14.00">0</text>
</g>
<!-- 1 -->
<g id="node7" class="node">
<title>1</title>
<ellipse fill="none" stroke="green" cx="109.9" cy="-18" rx="27" ry="18"/>
<text text-anchor="middle" x="109.9" y="-14.3" font-family="Times,serif" font-size="14.00">1</text>
</g>
<!-- 0&#45;&gt;1 -->
<g id="edge5" class="edge">
<title>0&#45;&gt;1</title>
<path fill="none" stroke="black" d="M109.9,-287.97C109.9,-240.29 109.9,-105.18 109.9,-46.63"/>
<polygon fill="black" stroke="black" points="113.4,-46.31 109.9,-36.31 106.4,-46.31 113.4,-46.31"/>
<text text-anchor="middle" x="104.9" y="-165.79" font-family="Times,serif" font-size="14.00">1</text>
</g>
<!-- 2 -->
<g id="node8" class="node">
<title>2</title>
<ellipse fill="none" stroke="green" cx="213.9" cy="-18" rx="27" ry="18"/>
<text text-anchor="middle" x="213.9" y="-14.3" font-family="Times,serif" font-size="14.00">2</text>
</g>
<!-- 0&#45;&gt;2 -->
<g id="edge6" class="edge">
<title>0&#45;&gt;2</title>
<path fill="none" stroke="black" d="M122.71,-290.12C130.91,-279.96 141.21,-265.87 147.9,-252 181.79,-181.67 201.24,-90.78 209.37,-46.16"/>
<polygon fill="black" stroke="black" points="212.85,-46.56 211.15,-36.1 205.96,-45.34 212.85,-46.56"/>
<text text-anchor="middle" x="175.23" y="-171.08" font-family="Times,serif" font-size="14.00">1</text>
</g>
<!-- c -->
<!-- b&#45;&gt;c -->
<!-- d -->
<!-- c&#45;&gt;d -->
<!-- e -->
<!-- d&#45;&gt;e -->
<!-- 1&#45;&gt;2 -->
<g id="edge7" class="edge">
<title>1&#45;&gt;2</title>
<path fill="none" stroke="black" d="M137.12,-18C150.26,-18 163.41,-18 176.55,-18"/>
<polygon fill="black" stroke="black" points="176.61,-21.5 186.61,-18 176.61,-14.5 176.61,-21.5"/>
</g>
<!-- 3 -->
<g id="node9" class="node">
<title>3</title>
<ellipse fill="none" stroke="black" cx="317.9" cy="-18" rx="27" ry="18"/>
<text text-anchor="middle" x="317.9" y="-14.3" font-family="Times,serif" font-size="14.00">3</text>
</g>
<!-- 1&#45;&gt;3 -->
<g id="edge9" class="edge">
<title>1&#45;&gt;3</title>
<path fill="none" stroke="black" d="M129.94,-30.35C144.99,-38.88 166.44,-49.45 186.9,-54 210.33,-59.21 217.47,-59.21 240.9,-54 257.52,-50.31 274.8,-42.63 288.77,-35.31"/>
<polygon fill="black" stroke="black" points="290.75,-38.21 297.86,-30.35 287.4,-32.07 290.75,-38.21"/>
</g>
<!-- 2&#45;&gt;3 -->
<g id="edge8" class="edge">
<title>2&#45;&gt;3</title>
<path fill="none" stroke="black" d="M241.12,-18C254.26,-18 267.41,-18 280.55,-18"/>
<polygon fill="black" stroke="black" points="280.61,-21.5 290.61,-18 280.61,-14.5 280.61,-21.5"/>
</g>
</g>
</svg>
