<?xml version="1.0" encoding="UTF-8" standalone="no"?>
<!DOCTYPE svg PUBLIC "-//W3C//DTD SVG 1.1//EN"
 "http://www.w3.org/Graphics/SVG/1.1/DTD/svg11.dtd">
<!-- Generated by graphviz version 2.43.0 (0)
 -->
<!-- Title: G Pages: 1 -->
<svg width="354pt" height="332pt"
 viewBox="0.00 0.00 353.90 332.00" xmlns="http://www.w3.org/2000/svg" xmlns:xlink="http://www.w3.org/1999/xlink">
<g id="graph0" class="graph" transform="scale(1 1) rotate(0) translate(4 328)">
<title>G</title>
<polygon fill="white" stroke="transparent" points="-4,4 -4,-328 349.9,-328 349.9,4 -4,4"/>
<!-- a -->
<!-- 0 -->
<g id="node2" class="node">
<title>0</title>
<ellipse fill="none" stroke="black" cx="110.9" cy="-306" rx="27" ry="18"/>
<text text-anchor="middle" x="110.9" y="-302.3" font-family="Times,serif" font-size="14.00">0</text>
</g>
<!-- a&#45;&gt;0 -->
<!-- b -->
<!-- a&#45;&gt;b -->
<!-- 2 -->
<g id="node5" class="node">
<title>2</title>
<ellipse fill="none" stroke="green" cx="213.9" cy="-162" rx="27" ry="18"/>
<text text-anchor="middle" x="213.9" y="-158.3" font-family="Times,serif" font-size="14.00">2</text>
</g>
<!-- 0&#45;&gt;2 -->
<g id="edge9" class="edge">
<title>0&#45;&gt;2</title>
<path fill="none" stroke="black" d="M122.12,-289.53C140.07,-264.78 175.4,-216.08 196.6,-186.85"/>
<polygon fill="black" stroke="black" points="199.66,-188.6 202.69,-178.45 193.99,-184.49 199.66,-188.6"/>
<text text-anchor="middle" x="157.33" y="-237.89" font-family="Times,serif" font-size="14.00">1</text>
</g>
<!-- 1 -->
<g id="node7" class="node">
<title>1</title>
<ellipse fill="none" stroke="black" cx="110.9" cy="-90" rx="27" ry="18"/>
<text text-anchor="middle" x="110.9" y="-86.3" font-family="Times,serif" font-size="14.00">1</text>
</g>
<!-- 0&#45;&gt;1 -->
<g id="edge7" class="edge">
<title>0&#45;&gt;1</title>
<path fill="none" stroke="black" d="M110.9,-287.85C110.9,-250.83 110.9,-163.18 110.9,-118.39"/>
<polygon fill="black" stroke="black" points="114.4,-118.23 110.9,-108.23 107.4,-118.23 114.4,-118.23"/>
<text text-anchor="middle" x="105.9" y="-201.53" font-family="Times,serif" font-size="14.00">1</text>
</g>
<!-- c -->
<!-- b&#45;&gt;c -->
<!-- d -->
<!-- c&#45;&gt;d -->
<!-- 3 -->
<g id="node9" class="node">
<title>3</title>
<ellipse fill="none" stroke="black" cx="318.9" cy="-18" rx="27" ry="18"/>
<text text-anchor="middle" x="318.9" y="-14.3" font-family="Times,serif" font-size="14.00">3</text>
</g>
<!-- 2&#45;&gt;3 -->
<g id="edge14" class="edge">
<title>2&#45;&gt;3</title>
<path fill="none" stroke="black" d="M225.34,-145.53C243.64,-120.78 279.65,-72.08 301.26,-42.85"/>
<polygon fill="black" stroke="black" points="304.34,-44.57 307.48,-34.45 298.72,-40.41 304.34,-44.57"/>
<text text-anchor="middle" x="261.33" y="-93.89" font-family="Times,serif" font-size="14.00">1</text>
</g>
<!-- d&#45;&gt;1 -->
<!-- e -->
<!-- d&#45;&gt;e -->
<!-- 1&#45;&gt;2 -->
<g id="edge10" class="edge">
<title>1&#45;&gt;2</title>
<path fill="none" stroke="red" d="M129.15,-103.41C145.22,-114.32 168.81,-130.36 187.03,-142.74"/>
<polygon fill="red" stroke="red" points="185.25,-145.76 195.48,-148.49 189.18,-139.97 185.25,-145.76"/>
<text text-anchor="middle" x="157.55" y="-129.9" font-family="Times,serif" font-size="14.00">1</text>
</g>
<!-- 1&#45;&gt;3 -->
<g id="edge15" class="edge">
<title>1&#45;&gt;3</title>
<path fill="none" stroke="black" d="M134.76,-80.97C171.9,-68.47 243.65,-44.32 285.79,-30.14"/>
<polygon fill="black" stroke="black" points="286.96,-33.44 295.32,-26.94 284.72,-26.81 286.96,-33.44"/>
</g>
<!-- f -->
<!-- 1&#45;&gt;f -->
<!-- e&#45;&gt;f -->
<!-- g -->
<!-- f&#45;&gt;g -->
<!-- g&#45;&gt;3 -->
</g>
</svg>
